<svg xmlns="http://www.w3.org/2000/svg">
  <defs>
    <symbol id="github">
      <path fill="currentColor" d="M12,2A10,10 0 0,0 2,12C2,16.42 4.87,20.17 8.84,21.5C9.34,21.58 9.5,21.27 9.5,21C9.5,20.77 9.5,20.14 9.5,19.31C6.73,19.91 6.14,17.97 6.14,17.97C5.68,16.81 5.03,16.5 5.03,16.5C4.12,15.88 5.1,15.9 5.1,15.9C6.1,15.97 6.63,16.93 6.63,16.93C7.5,18.45 8.97,18 9.54,17.76C9.63,17.11 9.89,16.67 10.17,16.42C7.95,16.17 5.62,15.31 5.62,11.5C5.62,10.39 6,9.5 6.65,8.79C6.55,8.54 6.2,7.5 6.75,6.15C6.75,6.15 7.59,5.88 9.5,7.17C10.29,6.95 11.15,6.84 12,6.84C12.85,6.84 13.71,6.95 14.5,7.17C16.41,5.88 17.25,6.15 17.25,6.15C17.8,7.5 17.45,8.54 17.35,8.79C18,9.5 18.38,10.39 18.38,11.5C18.38,15.32 16.04,16.16 13.81,16.41C14.17,16.72 14.5,17.33 14.5,18.26C14.5,19.6 14.5,20.68 14.5,21C14.5,21.27 14.66,21.59 15.17,21.5C19.14,20.16 22,16.42 22,12A10,10 0 0,0 12,2Z"/>
    </symbol>
    <symbol id="keybase">
      <path fill="currentColor" d="M4.4,21.4C4.3,21,4,20.6,3.9,20.3l-0.2-0.4l-0.5,0.6L2.7,21l-0.1-1.1c-0.1-1.6,0.1-3.2,0.3-4.4c0.6-2.6,2.5-4.9,5-6.2
        l0.6-0.3L8.4,8.7C8.3,8.5,8.2,8,8.2,7.8L8.1,7.2L7.6,7.1C6.7,7.1,6.3,6.8,6,6.2C5.8,5.9,5.8,5.9,5.9,5C5.9,3.9,6,3.7,6.4,3.3
        c0.4-0.5,0.7-0.6,1.8-0.5C8.9,2.8,9.1,2.9,9.4,3c0.2,0.1,0.4,0.2,0.4,0.2c0,0,0.3-0.3,0.6-0.7l0.5-0.7L11.2,2
        c0.2,0.1,0.4,0.2,0.5,0.3l0.2,0.1l-0.2,0.4c-0.1,0.2-0.2,0.6-0.2,0.8L11.5,4L11.9,4c1.6,0.2,2.8,1.1,3.3,2.6c0.1,0.5,0.1,1.4,0,1.8
        c-0.1,0.4-0.1,0.4,0,0.4c0.2,0,1.4,0.6,1.9,0.9c1,0.6,2.1,1.7,2.7,2.7c1.2,1.8,1.7,3.7,1.5,5.8c-0.1,1.3-0.3,2.3-0.8,3.2L20.4,22
        h-1.3l0.3-0.6c0.3-0.7,0.6-1.6,0.7-2.5c0.1-0.6,0.1-2.2,0-2.5l-0.1-0.2l-0.3,0.4c-0.8,0.9-2.1,1.2-3.7,0.7c-1.4-0.4-2-0.4-3.4-0.4
        c-1,0-1.4,0-1.9,0.2c-1.5,0.3-2.6,0.8-4.1,1.9c-0.6,0.4-1,0.7-1,0.7c0,0,0.1-0.3,0.2-0.6c0.1-0.3,0.3-0.9,0.4-1.3l0.2-0.7l-0.2,0.2
        c-0.1,0.1-0.5,0.5-0.8,0.8l-0.6,0.6l0.1,0.5C5,20,5.4,20.8,5.8,21.4c0.2,0.3,0.3,0.5,0.3,0.5s-0.3,0-0.7,0H4.7L4.4,21.4z M6.7,15
        C8,13.6,9,12.6,9.1,12.6c0,0-0.1,0.4-0.2,0.9c-0.9,2.7-1.1,3.3-1,3.3c0,0,0.3-0.1,0.7-0.2c2.2-1,4.9-1.1,7.6-0.4
        c1.2,0.3,1.7,0.3,2.3,0c0.3-0.2,0.5-0.3,0.6-0.6c0.3-0.4,0.3-1.1,0.1-1.7c-0.4-1.3-2.2-2.9-3.8-3.6c-0.8-0.4-0.9-0.4-1.1-0.2
        l-0.2,0.2l0.7,0.8c0.4,0.4,0.8,1,0.8,1.1c0.2,0.3,0.2,0.8,0,1.1c-0.2,0.4-0.8,0.8-1.3,0.7c-0.2-0.1-0.3,0-0.5,0.1
        c-0.6,0.4-1.2,0.3-1.7-0.3c-0.4-0.5-0.5-0.7-0.6-1.2c0-0.2-0.1-0.5-0.1-0.6c-0.1-0.2-0.1-0.3-0.1-0.6l0-0.4l-0.3-0.1
        c-0.5-0.1-1-0.4-1.3-0.6c-0.2-0.1-0.3-0.2-0.3-0.2c-0.1,0-0.4,0.2-0.8,0.3C5.9,11.8,4.3,14.2,4,17c0,0.3-0.1,0.6-0.1,0.7l0,0.2
        l0.3-0.3C4.3,17.5,5.5,16.3,6.7,15L6.7,15z M13.6,13c0.2-0.2,0.4-0.3,0.5-0.3c0,0,0.1,0.1,0.2,0.2c0.1,0.2,0.4,0.2,0.5,0
        c0.1-0.1,0.1-0.2-1.5-2.1c-0.9-1.1-1.1-1.3-1.2-1.3c-0.3,0-0.2,0.3,0.3,0.9l0.5,0.6l-0.3,0.2c-0.3,0.3-0.3,0.3-0.1,0.5
        c0.1,0.1,0.2,0.1,0.4-0.1l0.3-0.2l0.2,0.2c0.1,0.1,0.2,0.2,0.2,0.2c0,0.1-0.2,0.2-0.4,0.4c-0.2,0.2-0.4,0.4-0.4,0.4
        c0,0.1,0.1,0.3,0.4,0.6C13,13.4,13.1,13.4,13.6,13L13.6,13z M10.9,9.3c0.2-0.5,0.7-0.8,1.2-0.8c0.3,0,0.7,0.2,1,0.6l0.3,0.3L13.6,9
        c0.7-0.7,0.7-1.8,0.2-2.7c-0.4-0.7-1.1-1.1-2.2-1.2c-0.6-0.1-0.7-0.1-1-0.4l-0.2-0.2l-0.1,0.2c-0.2,0.3-0.7,1.3-0.8,1.7
        C9.3,7.1,9.4,8,9.7,8.5c0.2,0.4,0.9,1.1,1.1,1C10.7,9.5,10.8,9.4,10.9,9.3L10.9,9.3z M8.5,5.7C8.6,5.6,8.7,5.2,8.8,5
        C9,4.7,9.1,4.4,9.1,4.3c0-0.2-0.3-0.3-1-0.4c-0.6-0.1-0.7,0-0.8,0.1C7.2,4.2,7.1,4.3,7.1,4.5c0,0.2,0,0.4-0.1,0.7
        C7,5.7,7.1,5.8,7.6,5.9C8.5,6,8.4,6,8.5,5.7z M7.7,5.1c0-0.4,0.1-0.5,0.4-0.5h0.3v0.7H7.7L7.7,5.1L7.7,5.1z M9.3,20.4
        c-0.2-0.2-0.2-0.3-0.2-0.5c0-0.5,0.3-0.8,0.8-0.8c0.4,0,0.8,0.3,0.8,0.8c0,0.5-0.3,0.7-0.8,0.8C9.6,20.7,9.5,20.6,9.3,20.4L9.3,20.4
        z M14.4,20.5c-0.6-0.5-0.3-1.4,0.5-1.4c0.5,0,0.7,0.3,0.8,0.8c0,0.3,0,0.4-0.2,0.5c-0.2,0.2-0.3,0.2-0.5,0.2
        C14.7,20.7,14.5,20.6,14.4,20.5z"/>
    </symbol>
    <symbol id="linkedin">
      <path fill="currentColor" d="M21,21H17V14.25C17,13.19 15.81,12.31 14.75,12.31C13.69,12.31 13,13.19 13,14.25V21H9V9H13V11C13.66,9.93 15.36,9.24 16.5,9.24C19,9.24 21,11.28 21,13.75V21M7,21H3V9H7V21M5,3A2,2 0 0,1 7,5A2,2 0 0,1 5,7A2,2 0 0,1 3,5A2,2 0 0,1 5,3Z"/>
    </symbol>
    <symbol id="twitter">
      <path fill="currentColor" d="M22.46,6C21.69,6.35 20.86,6.58 20,6.69C20.88,6.16 21.56,5.32 21.88,4.31C21.05,4.81 20.13,5.16 19.16,5.36C18.37,4.5 17.26,4 16,4C13.65,4 11.73,5.92 11.73,8.29C11.73,8.63 11.77,8.96 11.84,9.27C8.28,9.09 5.11,7.38 3,4.79C2.63,5.42 2.42,6.16 2.42,6.94C2.42,8.43 3.17,9.75 4.33,10.5C3.62,10.5 2.96,10.3 2.38,10C2.38,10 2.38,10 2.38,10.03C2.38,12.11 3.86,13.85 5.82,14.24C5.46,14.34 5.08,14.39 4.69,14.39C4.42,14.39 4.15,14.36 3.89,14.31C4.43,16 6,17.26 7.89,17.29C6.43,18.45 4.58,19.13 2.56,19.13C2.22,19.13 1.88,19.11 1.54,19.07C3.44,20.29 5.7,21 8.12,21C16,21 20.33,14.46 20.33,8.79C20.33,8.6 20.33,8.42 20.32,8.23C21.16,7.63 21.88,6.87 22.46,6Z"/>
    </symbol>
  </defs>
</svg>
